<?xml version="1.0" encoding="utf-8"?>
<!-- Generator: Adobe Illustrator 18.0.0, SVG Export Plug-In . SVG Version: 6.00 Build 0)  -->
<!DOCTYPE svg PUBLIC "-//W3C//DTD SVG 1.1//EN" "http://www.w3.org/Graphics/SVG/1.1/DTD/svg11.dtd">
<svg version="1.1" id="Layer_1" xmlns="http://www.w3.org/2000/svg" xmlns:xlink="http://www.w3.org/1999/xlink" x="0px" y="0px"
	 viewBox="0 0 55.3 31" enable-background="new 0 0 55.3 31" xml:space="preserve">
<g>
	<defs>
		<rect id="SVGID_1_" x="-480.4" y="-47.3" width="1017" height="129"/>
	</defs>
	<clipPath id="SVGID_2_">
		<use xlink:href="#SVGID_1_"  overflow="visible"/>
	</clipPath>
	<g clip-path="url(#SVGID_2_)">
		<defs>
			<path id="SVGID_3_" d="M-277.9,28.3c-1.7-0.4-1.3-2.1-1.3-2.1l4-14.8l0-0.1c0.4-1.6-1.9-2.3-2.9-2.4c-0.4-0.1-0.2-0.2-0.2-0.2h9
				l-1.6,14.5h0l6.1-14.5h5.3l-5,19.6h-3.3l4.5-16.6l-7.1,16.6h-3.7l1.8-16.9h0l-4.3,16.9H-277.9z M-257.3,21.2h3.3l0.6-9.5
				L-257.3,21.2z M-255.1,8.7h4.8l-0.8,19.6h-3.4l0.3-4.2h-4.2l-1.7,4.2h-3.6L-255.1,8.7z"/>
		</defs>
		<clipPath id="SVGID_4_">
			<use xlink:href="#SVGID_3_"  overflow="visible"/>
		</clipPath>
		<g clip-path="url(#SVGID_4_)">
			<defs>
				<rect id="SVGID_5_" x="-480.4" y="-47.3" width="1017" height="129"/>
			</defs>
			<clipPath id="SVGID_6_">
				<use xlink:href="#SVGID_5_"  overflow="visible"/>
			</clipPath>
			<rect x="-284.3" y="3.7" clip-path="url(#SVGID_6_)" fill="#474B52" width="39" height="29.6"/>
		</g>
	</g>
</g>
<g>
	<defs>
		<rect id="SVGID_7_" x="-480.4" y="-47.3" width="1017" height="129"/>
	</defs>
	<clipPath id="SVGID_8_">
		<use xlink:href="#SVGID_7_"  overflow="visible"/>
	</clipPath>
	<g clip-path="url(#SVGID_8_)">
		<defs>
			<path id="SVGID_9_" d="M-231,10.3c0.2,0,0.4,0,0.4-0.3c0-0.2-0.2-0.2-0.4-0.2h-0.3v0.5H-231z M-231.3,11.3h-0.3V9.5h0.6
				c0.4,0,0.6,0.2,0.6,0.5c0,0.3-0.2,0.5-0.4,0.5l0.5,0.8h-0.3l-0.4-0.8h-0.3L-231.3,11.3z M-231,9c-0.6,0-1.1,0.6-1.1,1.4
				c0,0.8,0.4,1.4,1.1,1.4c0.6,0,1.1-0.6,1.1-1.4C-229.9,9.5-230.3,9-231,9z M-231,12c-0.8,0-1.5-0.7-1.5-1.7c0-1,0.7-1.7,1.5-1.7
				s1.5,0.7,1.5,1.7C-229.5,11.4-230.2,12-231,12z M-286.1,12.7c0.2,0,0.5,0,0.8,0.2c0.3,0.2,0.5,0.5,0.5,1.4v0h1.1v-0.1
				c0-1.2-0.5-2-1-2.4c-0.6-0.4-1.1-0.4-1.4-0.4h-0.1L-286.1,12.7C-286.2,12.7-286.2,12.7-286.1,12.7z M-283.6,10.1
				c-0.9-0.7-2-0.8-2.4-0.8h-0.2v1.2h0.2c0.4,0,1.2,0.1,1.9,0.6c0.7,0.5,1.2,1.3,1.3,3.2h1.1C-281.8,12.1-282.7,10.8-283.6,10.1z
				 M-283,9.3c1.1,0.8,2,2.1,2,5h1.1c0-3.2-1.1-5.1-2.5-6c-1.3-1-2.8-1.1-3.5-1.1h-0.3v1.2c0.1,0,0.1,0,0.3,0
				C-285.4,8.4-284.1,8.5-283,9.3z M-278.5,16c-1.2,0-2.2,0.8-3.1,2.2h-0.1l0.5-1.9h-2.1l-3.2,12h2.1l1.9-7.2
				c0.6-2.2,1.9-2.7,2.9-2.7c0.4,0,0.7,0.1,0.8,0.1l0.6-2.4C-278.1,16-278.3,16-278.5,16z M-287.1,16.3l-3.2,12h2.1l3.2-12H-287.1z
				 M-292.9,24c-0.5,1.8-1.4,2.8-2.7,2.8c-0.9,0-1.1-0.8-0.8-1.8c0.2-0.9,0.7-1.6,1.4-2c0.7-0.3,2-0.6,2.6-1.1
				C-292.4,21.9-292.9,24-292.9,24z M-289.5,18.9c0.6-2.1-0.7-2.9-2.6-2.9c-2.8,0-4.1,1.4-4.8,4h2c0.3-1.2,0.8-2.3,2.2-2.3
				c1.1,0,1.3,0.7,1,1.8c-0.3,1.1-0.8,1.3-1.7,1.5l-1.8,0.5c-1.6,0.5-2.8,1.1-3.5,3.8c-0.6,2.3,0.2,3.4,1.9,3.4
				c1.2,0,2.3-0.6,3.1-1.8h0c-0.3,1.2,0.4,1.6,1.4,1.6c0.4,0,0.8-0.2,1.1-0.3l0.4-1.5c-0.1,0.1-0.2,0.1-0.4,0.1
				c-0.3,0-0.5-0.4-0.3-0.8C-291.4,25.9-289.5,18.9-289.5,18.9z M-244.9,10.8c-0.2-1.2-2.1-1.8-2.9-1.9c-0.4-0.1-0.2-0.2-0.2-0.2
				h6.1l1,6.5l3.9-6.5h3.9l-6.5,9.9l1.8,9.7h-3.4l-1.1-7l-4.3,7h-4l7.1-10.5L-244.9,10.8L-244.9,10.8L-244.9,10.8z"/>
		</defs>
		<clipPath id="SVGID_10_">
			<use xlink:href="#SVGID_9_"  overflow="visible"/>
		</clipPath>
		<g clip-path="url(#SVGID_10_)">
			<defs>
				<rect id="SVGID_11_" x="-480.4" y="-47.3" width="1017" height="129"/>
			</defs>
			<clipPath id="SVGID_12_">
				<use xlink:href="#SVGID_11_"  overflow="visible"/>
			</clipPath>
			<rect x="-303.8" y="2.2" clip-path="url(#SVGID_12_)" fill="#474B52" width="79.3" height="31.4"/>
		</g>
	</g>
</g>
<g>
	<defs>
		<rect id="SVGID_13_" x="-480.4" y="-47.3" width="1017" height="129"/>
	</defs>
	<clipPath id="SVGID_14_">
		<use xlink:href="#SVGID_13_"  overflow="visible"/>
	</clipPath>
	<g clip-path="url(#SVGID_14_)">
		<defs>
			<path id="SVGID_15_" d="M-101.4,12.3c-0.4-2.9-5.3-4.9-12-4.9h-0.5c-1.3,0-2.7,0.1-4.1,0.3c-4.2,0.5-8.1,1.7-10.9,3.4
				c-2.8,1.6-4.3,3.5-4,5.3c0,0.3,0.1,0.5,0.2,0.8c0.1,0.1,0.2,0.1,0.2,0.2l0.1-0.6c0-0.1-0.1-0.2-0.1-0.4
				c-0.4-3.5,6.1-7.3,14.5-8.3c1.4-0.2,2.7-0.3,4.1-0.3h0.5c6.5,0,11.2,1.9,11.6,4.7c0.1,1.2-0.5,2.4-1.8,3.6l-0.1,0.3
				C-102,15.1-101.2,13.7-101.4,12.3z M-118.6,1.8c-7.5,0.9-13,7.5-12.8,14.9h0.8c0-7.1,5.3-13.2,12.5-14.1c6.8-0.8,13,3.3,15.2,9.5
				C-104.8,5.4-111.4,0.9-118.6,1.8z M-130.6,20.9c0.3,0.9,0.7,1.8,1.2,2.6c0-0.2,0.1-0.4,0.2-0.6c-0.5-1-0.9-2.1-1.1-3.3
				L-130.6,20.9z M-118.3,5.5c-1.3,0-2.3,1-2.3,2.3c0,1.3,1,2.3,2.3,2.3c1.3,0,2.3-1,2.3-2.3C-116,6.6-117,5.5-118.3,5.5z
				 M-116.3,7.8c0,1.1-0.9,1.9-1.9,1.9c-1.1,0-1.9-0.9-1.9-1.9c0-1.1,0.9-1.9,1.9-1.9C-117.2,5.9-116.3,6.8-116.3,7.8z M-125.4,10.3
				c0,0.6-0.5,1.1-1.1,1.1c-0.6,0-1.1-0.5-1.1-1.1s0.5-1.1,1.1-1.1C-125.8,9.3-125.4,9.7-125.4,10.3z M-120.1,15.4
				c0,0.6-0.5,1.1-1.1,1.1c-0.6,0-1.1-0.5-1.1-1.1s0.5-1.1,1.1-1.1C-120.6,14.3-120.1,14.8-120.1,15.4z M-117,7.8
				c0,0.7-0.6,1.3-1.3,1.3c-0.7,0-1.3-0.6-1.3-1.3c0-0.7,0.6-1.3,1.3-1.3C-117.6,6.5-117,7.1-117,7.8z M-127.1,5.5
				c0.7-1.8,3-2.7,6-2.9l0,0c-3.3,0.1-5.7,1.1-6.4,2.9c-1.3,3.2,2.6,8,9.1,11.9c0-0.1,0-0.2,0-0.4C-124.7,13.3-128.4,8.6-127.1,5.5z
				 M-107.8,4.9c0,0,0.1,0,0.1,0c-0.8-1.7-1.8-2.8-3.2-3.1c-4.1-0.9-9.3,6.5-11.4,16.6l-0.1,0.4c0.1,0.1,0.2,0.3,0.2,0.4
				c0-0.3,0.1-0.5,0.2-0.8c2.1-9.9,7.1-17.2,11.2-16.3C-109.5,2.4-108.5,3.4-107.8,4.9z"/>
		</defs>
		<clipPath id="SVGID_16_">
			<use xlink:href="#SVGID_15_"  overflow="visible"/>
		</clipPath>
		<g clip-path="url(#SVGID_16_)">
			<defs>
				<rect id="SVGID_17_" x="-480.4" y="-47.3" width="1017" height="129"/>
			</defs>
			<clipPath id="SVGID_18_">
				<use xlink:href="#SVGID_17_"  overflow="visible"/>
			</clipPath>
			<rect x="-137.9" y="-3.3" clip-path="url(#SVGID_18_)" fill="#474B52" width="41.5" height="31.8"/>
		</g>
	</g>
</g>
<g>
	<defs>
		<rect id="SVGID_19_" x="-480.4" y="-47.3" width="1017" height="129"/>
	</defs>
	<clipPath id="SVGID_20_">
		<use xlink:href="#SVGID_19_"  overflow="visible"/>
	</clipPath>
	<g clip-path="url(#SVGID_20_)">
		<defs>
			<path id="SVGID_21_" d="M-100.4,20.9h2.3l0.4-6.1L-100.4,20.9z M-99.2,12.5h4.3L-95.7,28h-3l0.3-4.9h-3.1l-2.2,4.9h-3.2
				L-99.2,12.5z"/>
		</defs>
		<clipPath id="SVGID_22_">
			<use xlink:href="#SVGID_21_"  overflow="visible"/>
		</clipPath>
		<g clip-path="url(#SVGID_22_)">
			<defs>
				<rect id="SVGID_23_" x="-480.4" y="-47.3" width="1017" height="129"/>
			</defs>
			<clipPath id="SVGID_24_">
				<use xlink:href="#SVGID_23_"  overflow="visible"/>
			</clipPath>
			<rect x="-111.9" y="7.5" clip-path="url(#SVGID_24_)" fill="#474B52" width="21.9" height="25.5"/>
		</g>
	</g>
</g>
<g>
	<defs>
		<rect id="SVGID_25_" x="-480.4" y="-47.3" width="1017" height="129"/>
	</defs>
	<clipPath id="SVGID_26_">
		<use xlink:href="#SVGID_25_"  overflow="visible"/>
	</clipPath>
	<g clip-path="url(#SVGID_26_)">
		<defs>
			<path id="SVGID_27_" d="M-83.2,12.5l-3.4,5.1l-0.9-5.1h-5.4c-67.5-37.8-0.2,0.1,0.2,0.1c0.7,0.1,2.4,0.6,2.6,1.5l1.2,5.5
				l-6.2,8.3h3.5l3.8-5.5l1,5.5h3l-1.6-7.7l5.8-7.8H-83.2z M-105.3,12.5h-2.3l-5.4,11.4l1.4-11.4h-7.9c-40.8-37.8-0.2,0.1,0.2,0.1
				c0.8,0.1,2.7,0.6,2.6,1.8l-4.1,13.5h2.9l3.8-13.3l-1.5,13.3h3.3l6.2-13l-4,13h2.9l4.4-15.5H-105.3z"/>
		</defs>
		<clipPath id="SVGID_28_">
			<use xlink:href="#SVGID_27_"  overflow="visible"/>
		</clipPath>
		<g clip-path="url(#SVGID_28_)">
			<defs>
				<rect id="SVGID_29_" x="-480.4" y="-47.3" width="1017" height="129"/>
			</defs>
			<clipPath id="SVGID_30_">
				<use xlink:href="#SVGID_29_"  overflow="visible"/>
			</clipPath>
			<rect x="-142.7" y="-9.3" clip-path="url(#SVGID_30_)" fill="#474B52" width="67.9" height="42.3"/>
		</g>
	</g>
</g>
<g>
	<defs>
		<rect id="SVGID_31_" x="-480.4" y="-47.3" width="1017" height="129"/>
	</defs>
	<clipPath id="SVGID_32_">
		<use xlink:href="#SVGID_31_"  overflow="visible"/>
	</clipPath>
	<g clip-path="url(#SVGID_32_)">
		<defs>
			<path id="SVGID_33_" d="M-77.6,14c0.2,0,0.4,0,0.4-0.3c0-0.2-0.2-0.2-0.4-0.2H-78V14H-77.6z M-78,15h-0.3v-1.8h0.7
				c0.4,0,0.7,0.1,0.7,0.5c0,0.3-0.2,0.5-0.5,0.5l0.5,0.8h-0.3l-0.5-0.8H-78V15z M-77.7,12.8c-0.7,0-1.2,0.5-1.2,1.3
				c0,0.7,0.5,1.3,1.2,1.3c0.7,0,1.2-0.5,1.2-1.3C-76.4,13.3-77,12.8-77.7,12.8z M-77.7,15.7c-0.9,0-1.6-0.7-1.6-1.6
				c0-1,0.7-1.6,1.6-1.6c0.8,0,1.6,0.6,1.6,1.6C-76.1,15.1-76.8,15.7-77.7,15.7z M-123.2,20.8l0.2-0.6c0.4-1.5,0.3-2.6-1-2.6
				c-1.5,0-2.4,1.5-2.8,3l-0.1,0.2H-123.2z M-127.4,22.4l-0.2,0.7c-0.5,1.6-0.9,3.6,0.9,3.6c1.6,0,2.4-1.9,2.6-2.6h2.2
				c-0.8,2.6-2.8,4.2-5.3,4.2c-1.9,0-4.1-0.6-2.5-6c0.9-3.1,2.5-6.3,6.1-6.3c3.2,0,3.5,1.9,2.5,5.2l-0.4,1.2H-127.4z M-136.3,26
				c1.8,0,2.7-2.3,3.2-4.1c0.5-1.9,1-4-0.7-4c-1.7,0-2.5,1.7-3.1,3.9C-137.4,23.8-138,26-136.3,26z M-138.8,29
				c-0.2,0.7,0.2,1.4,1.3,1.4c1.2,0,2.2-0.8,2.6-2.2l0.6-1.9h0c-0.7,1-2,1.6-3.1,1.6c-2.7,0-2.7-2.7-1.7-5.9c0.8-2.6,2.2-6,5.4-6
				c1.4,0,2.1,0.9,2,1.7h0l0.4-1.4h2.2l-3.3,11.1c-0.8,2.8-2.6,4.6-5.7,4.6c-3.4,0-3.2-2-2.9-3L-138.8,29L-138.8,29z M-143.8,17.9
				c-1.3,0-2.1,1.1-3,4.2c-0.8,2.6-1,4.3,0.7,4.3c1.6,0,2.4-1.6,3.2-4.1C-142.2,19.5-142,17.9-143.8,17.9z M-144.3,26.5L-144.3,26.5
				c-0.6,0.8-1.4,1.7-3.1,1.7c-2.7,0-3.1-2.3-1.9-6.3c1.5-5.2,3.6-6,5.3-6c1.3,0,2,0.6,2.1,1.7h0l1.5-5.2h2.3l-4.6,15.5h-2.2
				L-144.3,26.5z M-155.6,12.5h8.3l-0.6,2.1h-5.8l-1.3,4.3h5.5l-0.6,2.1h-5.5l-1.5,4.9h6l-0.6,2.1h-8.4L-155.6,12.5z"/>
		</defs>
		<clipPath id="SVGID_34_">
			<use xlink:href="#SVGID_33_"  overflow="visible"/>
		</clipPath>
		<g clip-path="url(#SVGID_34_)">
			<defs>
				<rect id="SVGID_35_" x="-480.4" y="-47.3" width="1017" height="129"/>
			</defs>
			<clipPath id="SVGID_36_">
				<use xlink:href="#SVGID_35_"  overflow="visible"/>
			</clipPath>
			<rect x="-165.2" y="7.5" clip-path="url(#SVGID_36_)" fill="#474B52" width="94.1" height="29.5"/>
		</g>
	</g>
</g>
<g>
	<defs>
		<rect id="SVGID_37_" x="-480.4" y="-47.3" width="1017" height="129"/>
	</defs>
	<clipPath id="SVGID_38_">
		<use xlink:href="#SVGID_37_"  overflow="visible"/>
	</clipPath>
	<g clip-path="url(#SVGID_38_)">
		<defs>
			<path id="SVGID_39_" d="M29.1,12.8h3l0.6-2.6c-1.6,0.1-2.5,0.8-3.1,1.7C29.3,12.3,29.2,12.5,29.1,12.8z"/>
		</defs>
		<clipPath id="SVGID_40_">
			<use xlink:href="#SVGID_39_"  overflow="visible"/>
		</clipPath>
		<g clip-path="url(#SVGID_40_)">
			<defs>
				<rect id="SVGID_41_" x="-480.4" y="-47.3" width="1017" height="129"/>
			</defs>
			<clipPath id="SVGID_42_">
				<use xlink:href="#SVGID_41_"  overflow="visible"/>
			</clipPath>
			<rect x="24.1" y="5.2" clip-path="url(#SVGID_42_)" fill="#474B52" width="13.6" height="12.6"/>
		</g>
	</g>
</g>
<g>
	<defs>
		<rect id="SVGID_43_" x="-480.4" y="-47.3" width="1017" height="129"/>
	</defs>
	<clipPath id="SVGID_44_">
		<use xlink:href="#SVGID_43_"  overflow="visible"/>
	</clipPath>
	<g clip-path="url(#SVGID_44_)">
		<defs>
			<polygon id="SVGID_45_" points="28.8,14.9 25.8,29.3 28.6,29.3 31.7,14.9 			"/>
		</defs>
		<clipPath id="SVGID_46_">
			<use xlink:href="#SVGID_45_"  overflow="visible"/>
		</clipPath>
		<g clip-path="url(#SVGID_46_)">
			<defs>
				<rect id="SVGID_47_" x="-480.4" y="-47.3" width="1017" height="129"/>
			</defs>
			<clipPath id="SVGID_48_">
				<use xlink:href="#SVGID_47_"  overflow="visible"/>
			</clipPath>
			<rect x="20.8" y="9.9" clip-path="url(#SVGID_48_)" fill="#474B52" width="15.9" height="24.4"/>
		</g>
	</g>
</g>
<g>
	<defs>
		<rect id="SVGID_49_" x="-480.4" y="-47.3" width="1017" height="129"/>
	</defs>
	<clipPath id="SVGID_50_">
		<use xlink:href="#SVGID_49_"  overflow="visible"/>
	</clipPath>
	<g clip-path="url(#SVGID_50_)">
		<defs>
			<polygon id="SVGID_51_" points="36.3,18.1 37.4,12.8 44.1,12.8 44.7,10.2 34.9,10.2 30.9,29.3 33.9,29.3 35.8,20.7 42.5,20.7 
				43,18.1 			"/>
		</defs>
		<clipPath id="SVGID_52_">
			<use xlink:href="#SVGID_51_"  overflow="visible"/>
		</clipPath>
		<g clip-path="url(#SVGID_52_)">
			<defs>
				<rect id="SVGID_53_" x="-480.4" y="-47.3" width="1017" height="129"/>
			</defs>
			<clipPath id="SVGID_54_">
				<use xlink:href="#SVGID_53_"  overflow="visible"/>
			</clipPath>
			<rect x="25.9" y="5.2" clip-path="url(#SVGID_54_)" fill="#474B52" width="23.8" height="29.1"/>
		</g>
	</g>
</g>
<g>
	<defs>
		<rect id="SVGID_55_" x="-480.4" y="-47.3" width="1017" height="129"/>
	</defs>
	<clipPath id="SVGID_56_">
		<use xlink:href="#SVGID_55_"  overflow="visible"/>
	</clipPath>
	<g clip-path="url(#SVGID_56_)">
		<defs>
			<path id="SVGID_57_" d="M23.1,14.6c-1.6,0-3.1,0.8-4.1,2.1h-0.1l0.3-1.7h-2.7l-3,14.4h2.9l2-9.6c0.4-1.9,1.7-2.8,2.9-2.8
				c1.4,0,1.8,0.7,1.4,2.6l-2.1,9.9h2.9l2.3-10.8C26.5,15.6,25.3,14.6,23.1,14.6z"/>
		</defs>
		<clipPath id="SVGID_58_">
			<use xlink:href="#SVGID_57_"  overflow="visible"/>
		</clipPath>
		<g clip-path="url(#SVGID_58_)">
			<defs>
				<rect id="SVGID_59_" x="-480.4" y="-47.3" width="1017" height="129"/>
			</defs>
			<clipPath id="SVGID_60_">
				<use xlink:href="#SVGID_59_"  overflow="visible"/>
			</clipPath>
			<rect x="8.5" y="9.6" clip-path="url(#SVGID_60_)" fill="#474B52" width="22.5" height="24.7"/>
		</g>
	</g>
</g>
<g>
	<defs>
		<rect id="SVGID_61_" x="-480.4" y="-47.3" width="1017" height="129"/>
	</defs>
	<clipPath id="SVGID_62_">
		<use xlink:href="#SVGID_61_"  overflow="visible"/>
	</clipPath>
	<g clip-path="url(#SVGID_62_)">
		<defs>
			<path id="SVGID_63_" d="M33.7,5.4c-3.9,0.1-6.4,1.7-7.8,3.7c-0.9,1.3-1.4,2.6-1.6,3.7l2.6,0c0.2-0.7,0.5-1.5,1-2.2
				c0.9-1.3,2.4-2.4,5.2-2.6L33.7,5.4z"/>
		</defs>
		<clipPath id="SVGID_64_">
			<use xlink:href="#SVGID_63_"  overflow="visible"/>
		</clipPath>
		<g clip-path="url(#SVGID_64_)">
			<defs>
				<rect id="SVGID_65_" x="-480.4" y="-47.3" width="1017" height="129"/>
			</defs>
			<clipPath id="SVGID_66_">
				<use xlink:href="#SVGID_65_"  overflow="visible"/>
			</clipPath>
			<rect x="19.3" y="0.4" clip-path="url(#SVGID_66_)" fill="#474B52" width="19.4" height="17.4"/>
		</g>
	</g>
</g>
<g>
	<defs>
		<rect id="SVGID_67_" x="-480.4" y="-47.3" width="1017" height="129"/>
	</defs>
	<clipPath id="SVGID_68_">
		<use xlink:href="#SVGID_67_"  overflow="visible"/>
	</clipPath>
	<g clip-path="url(#SVGID_68_)">
		<defs>
			<path id="SVGID_69_" d="M24.4,7.7c1.6-2.2,4.4-4.2,9.7-4.2L34.6,1c-6.3-0.2-10.2,2.2-12.3,5.2c-1.6,2.3-2.3,4.8-2.5,6.6l2.6,0
				C22.6,11.3,23.1,9.4,24.4,7.7z"/>
		</defs>
		<clipPath id="SVGID_70_">
			<use xlink:href="#SVGID_69_"  overflow="visible"/>
		</clipPath>
		<g clip-path="url(#SVGID_70_)">
			<defs>
				<rect id="SVGID_71_" x="-480.4" y="-47.3" width="1017" height="129"/>
			</defs>
			<clipPath id="SVGID_72_">
				<use xlink:href="#SVGID_71_"  overflow="visible"/>
			</clipPath>
			<rect x="14.8" y="-4" clip-path="url(#SVGID_72_)" fill="#474B52" width="24.8" height="21.8"/>
		</g>
	</g>
</g>
<g>
	<defs>
		<rect id="SVGID_73_" x="-480.4" y="-47.3" width="1017" height="129"/>
	</defs>
	<clipPath id="SVGID_74_">
		<use xlink:href="#SVGID_73_"  overflow="visible"/>
	</clipPath>
	<g clip-path="url(#SVGID_74_)">
		<defs>
			<path id="SVGID_75_" d="M12.3,10.2L9.4,23.9c-0.5,2.4-1.7,3.5-3.5,3.5c-1.8,0-2.6-1.1-2-3.5l2.9-13.7h-3L0.9,23.7
				c-0.9,4.4,0.9,6,4.5,6c3.6,0,6.1-1.6,7.1-6l2.9-13.4H12.3z"/>
		</defs>
		<clipPath id="SVGID_76_">
			<use xlink:href="#SVGID_75_"  overflow="visible"/>
		</clipPath>
		<g clip-path="url(#SVGID_76_)">
			<defs>
				<rect id="SVGID_77_" x="-480.4" y="-47.3" width="1017" height="129"/>
			</defs>
			<clipPath id="SVGID_78_">
				<use xlink:href="#SVGID_77_"  overflow="visible"/>
			</clipPath>
			<rect x="-4.4" y="5.2" clip-path="url(#SVGID_78_)" fill="#474B52" width="24.7" height="29.4"/>
		</g>
	</g>
</g>
<g>
	<defs>
		<rect id="SVGID_79_" x="-480.4" y="-47.3" width="1017" height="129"/>
	</defs>
	<clipPath id="SVGID_80_">
		<use xlink:href="#SVGID_79_"  overflow="visible"/>
	</clipPath>
	<g clip-path="url(#SVGID_80_)">
		<defs>
			<polygon id="SVGID_81_" points="42.8,29.3 45.7,29.3 48.8,14.9 45.9,14.9 			"/>
		</defs>
		<clipPath id="SVGID_82_">
			<use xlink:href="#SVGID_81_"  overflow="visible"/>
		</clipPath>
		<g clip-path="url(#SVGID_82_)">
			<defs>
				<rect id="SVGID_83_" x="-480.4" y="-47.3" width="1017" height="129"/>
			</defs>
			<clipPath id="SVGID_84_">
				<use xlink:href="#SVGID_83_"  overflow="visible"/>
			</clipPath>
			<rect x="37.8" y="9.9" clip-path="url(#SVGID_84_)" fill="#474B52" width="15.9" height="24.4"/>
		</g>
	</g>
</g>
<g>
	<defs>
		<rect id="SVGID_85_" x="-480.4" y="-47.3" width="1017" height="129"/>
	</defs>
	<clipPath id="SVGID_86_">
		<use xlink:href="#SVGID_85_"  overflow="visible"/>
	</clipPath>
	<g clip-path="url(#SVGID_86_)">
		<defs>
			<path id="SVGID_87_" d="M46.9,10.2l-0.6,2.6H49C49,10.7,46.9,10.2,46.9,10.2z"/>
		</defs>
		<clipPath id="SVGID_88_">
			<use xlink:href="#SVGID_87_"  overflow="visible"/>
		</clipPath>
		<g clip-path="url(#SVGID_88_)">
			<defs>
				<rect id="SVGID_89_" x="-480.4" y="-47.3" width="1017" height="129"/>
			</defs>
			<clipPath id="SVGID_90_">
				<use xlink:href="#SVGID_89_"  overflow="visible"/>
			</clipPath>
			<rect x="41.3" y="5.2" clip-path="url(#SVGID_90_)" fill="#474B52" width="12.7" height="12.6"/>
		</g>
	</g>
</g>
<g>
	<defs>
		<rect id="SVGID_91_" x="-480.4" y="-47.3" width="1017" height="129"/>
	</defs>
	<clipPath id="SVGID_92_">
		<use xlink:href="#SVGID_91_"  overflow="visible"/>
	</clipPath>
	<g clip-path="url(#SVGID_92_)">
		<defs>
			<path id="SVGID_93_" d="M52.6,12.1v-0.6H53c0.2,0,0.5,0,0.5,0.3c0,0.3-0.2,0.3-0.5,0.3H52.6z M53.8,11.8c0-0.4-0.3-0.6-0.8-0.6
				h-0.8v2.2h0.3v-0.9h0.3l0.6,0.9h0.4l-0.6-1C53.6,12.4,53.8,12.2,53.8,11.8z"/>
		</defs>
		<clipPath id="SVGID_94_">
			<use xlink:href="#SVGID_93_"  overflow="visible"/>
		</clipPath>
		<g clip-path="url(#SVGID_94_)">
			<defs>
				<rect id="SVGID_95_" x="-480.4" y="-47.3" width="1017" height="129"/>
			</defs>
			<clipPath id="SVGID_96_">
				<use xlink:href="#SVGID_95_"  overflow="visible"/>
			</clipPath>
			<rect x="47.2" y="6.2" clip-path="url(#SVGID_96_)" fill="#474B52" width="11.7" height="12.2"/>
		</g>
	</g>
</g>
<g>
	<defs>
		<rect id="SVGID_97_" x="-480.4" y="-47.3" width="1017" height="129"/>
	</defs>
	<clipPath id="SVGID_98_">
		<use xlink:href="#SVGID_97_"  overflow="visible"/>
	</clipPath>
	<g clip-path="url(#SVGID_98_)">
		<defs>
			<path id="SVGID_99_" d="M53,13.9c-0.9,0-1.5-0.7-1.5-1.7c0-1,0.7-1.7,1.5-1.7c0.9,0,1.5,0.7,1.5,1.7C54.5,13.2,53.8,13.9,53,13.9
				z M53,10.2c-1.1,0-2,0.8-2,2c0,1.1,0.8,2,2,2c1,0,1.9-0.8,1.9-2C54.9,11,54,10.2,53,10.2z"/>
		</defs>
		<clipPath id="SVGID_100_">
			<use xlink:href="#SVGID_99_"  overflow="visible"/>
		</clipPath>
		<g clip-path="url(#SVGID_100_)">
			<defs>
				<rect id="SVGID_101_" x="-480.4" y="-47.3" width="1017" height="129"/>
			</defs>
			<clipPath id="SVGID_102_">
				<use xlink:href="#SVGID_101_"  overflow="visible"/>
			</clipPath>
			<rect x="46" y="5.2" clip-path="url(#SVGID_102_)" fill="#474B52" width="13.9" height="14"/>
		</g>
	</g>
</g>
<g>
	<defs>
		<rect id="SVGID_103_" x="-480.4" y="-47.3" width="1017" height="129"/>
	</defs>
	<clipPath id="SVGID_104_">
		<use xlink:href="#SVGID_103_"  overflow="visible"/>
	</clipPath>
	<g clip-path="url(#SVGID_104_)">
		<defs>
			<path id="SVGID_105_" d="M155.5,13.1h2.9l0.5-2.4c-1.5,0.1-2.3,0.8-2.9,1.6C155.8,12.6,155.7,12.8,155.5,13.1z"/>
		</defs>
		<clipPath id="SVGID_106_">
			<use xlink:href="#SVGID_105_"  overflow="visible"/>
		</clipPath>
		<g clip-path="url(#SVGID_106_)">
			<defs>
				<rect id="SVGID_107_" x="-480.4" y="-47.3" width="1017" height="129"/>
			</defs>
			<clipPath id="SVGID_108_">
				<use xlink:href="#SVGID_107_"  overflow="visible"/>
			</clipPath>
			<rect x="150.5" y="5.7" clip-path="url(#SVGID_108_)" fill="#474B52" width="13.4" height="12.4"/>
		</g>
	</g>
</g>
<g>
	<defs>
		<rect id="SVGID_109_" x="-480.4" y="-47.3" width="1017" height="129"/>
	</defs>
	<clipPath id="SVGID_110_">
		<use xlink:href="#SVGID_109_"  overflow="visible"/>
	</clipPath>
	<g clip-path="url(#SVGID_110_)">
		<defs>
			<polygon id="SVGID_111_" points="155.3,15.1 152.4,28.6 155.1,28.6 158,15.1 			"/>
		</defs>
		<clipPath id="SVGID_112_">
			<use xlink:href="#SVGID_111_"  overflow="visible"/>
		</clipPath>
		<g clip-path="url(#SVGID_112_)">
			<defs>
				<rect id="SVGID_113_" x="-480.4" y="-47.3" width="1017" height="129"/>
			</defs>
			<clipPath id="SVGID_114_">
				<use xlink:href="#SVGID_113_"  overflow="visible"/>
			</clipPath>
			<rect x="147.4" y="10.1" clip-path="url(#SVGID_114_)" fill="#474B52" width="15.6" height="23.5"/>
		</g>
	</g>
</g>
<g>
	<defs>
		<rect id="SVGID_115_" x="-480.4" y="-47.3" width="1017" height="129"/>
	</defs>
	<clipPath id="SVGID_116_">
		<use xlink:href="#SVGID_115_"  overflow="visible"/>
	</clipPath>
	<g clip-path="url(#SVGID_116_)">
		<defs>
			<polygon id="SVGID_117_" points="162.4,18.1 163.4,13.1 169.7,13.1 170.3,10.7 161.1,10.7 157.2,28.6 160.1,28.6 161.9,20.5 
				168.2,20.5 168.7,18.1 			"/>
		</defs>
		<clipPath id="SVGID_118_">
			<use xlink:href="#SVGID_117_"  overflow="visible"/>
		</clipPath>
		<g clip-path="url(#SVGID_118_)">
			<defs>
				<rect id="SVGID_119_" x="-480.4" y="-47.3" width="1017" height="129"/>
			</defs>
			<clipPath id="SVGID_120_">
				<use xlink:href="#SVGID_119_"  overflow="visible"/>
			</clipPath>
			<rect x="152.2" y="5.7" clip-path="url(#SVGID_120_)" fill="#474B52" width="23" height="27.9"/>
		</g>
	</g>
</g>
<g>
	<defs>
		<rect id="SVGID_121_" x="-480.4" y="-47.3" width="1017" height="129"/>
	</defs>
	<clipPath id="SVGID_122_">
		<use xlink:href="#SVGID_121_"  overflow="visible"/>
	</clipPath>
	<g clip-path="url(#SVGID_122_)">
		<defs>
			<path id="SVGID_123_" d="M149.9,14.8c-1.5,0-2.9,0.7-3.9,1.9h-0.1l0.3-1.6h-2.6l-2.9,13.5h2.7l1.9-9.1c0.4-1.8,1.6-2.6,2.7-2.6
				c1.4,0,1.7,0.7,1.4,2.4l-2,9.3h2.7l2.2-10.2C153.1,15.7,152,14.8,149.9,14.8z"/>
		</defs>
		<clipPath id="SVGID_124_">
			<use xlink:href="#SVGID_123_"  overflow="visible"/>
		</clipPath>
		<g clip-path="url(#SVGID_124_)">
			<defs>
				<rect id="SVGID_125_" x="-480.4" y="-47.3" width="1017" height="129"/>
			</defs>
			<clipPath id="SVGID_126_">
				<use xlink:href="#SVGID_125_"  overflow="visible"/>
			</clipPath>
			<rect x="135.8" y="9.8" clip-path="url(#SVGID_126_)" fill="#474B52" width="21.8" height="23.9"/>
		</g>
	</g>
</g>
<g>
	<defs>
		<rect id="SVGID_127_" x="-480.4" y="-47.3" width="1017" height="129"/>
	</defs>
	<clipPath id="SVGID_128_">
		<use xlink:href="#SVGID_127_"  overflow="visible"/>
	</clipPath>
	<g clip-path="url(#SVGID_128_)">
		<defs>
			<path id="SVGID_129_" d="M159.9,6.1c-3.7,0.1-6.1,1.6-7.4,3.5c-0.9,1.2-1.3,2.4-1.5,3.5l2.5,0c0.2-0.7,0.5-1.4,1-2.1
				c0.9-1.2,2.2-2.2,4.9-2.5L159.9,6.1z"/>
		</defs>
		<clipPath id="SVGID_130_">
			<use xlink:href="#SVGID_129_"  overflow="visible"/>
		</clipPath>
		<g clip-path="url(#SVGID_130_)">
			<defs>
				<rect id="SVGID_131_" x="-480.4" y="-47.3" width="1017" height="129"/>
			</defs>
			<clipPath id="SVGID_132_">
				<use xlink:href="#SVGID_131_"  overflow="visible"/>
			</clipPath>
			<rect x="146" y="1.1" clip-path="url(#SVGID_132_)" fill="#474B52" width="18.9" height="17"/>
		</g>
	</g>
</g>
<g>
	<defs>
		<rect id="SVGID_133_" x="-480.4" y="-47.3" width="1017" height="129"/>
	</defs>
	<clipPath id="SVGID_134_">
		<use xlink:href="#SVGID_133_"  overflow="visible"/>
	</clipPath>
	<g clip-path="url(#SVGID_134_)">
		<defs>
			<path id="SVGID_135_" d="M151.1,8.3c1.6-2.1,4.1-4,9.2-3.9l0.5-2.4c-6-0.2-9.7,2.1-11.7,4.9c-1.6,2.2-2.1,4.5-2.4,6.2l2.4,0
				C149.4,11.7,149.9,9.8,151.1,8.3z"/>
		</defs>
		<clipPath id="SVGID_136_">
			<use xlink:href="#SVGID_135_"  overflow="visible"/>
		</clipPath>
		<g clip-path="url(#SVGID_136_)">
			<defs>
				<rect id="SVGID_137_" x="-480.4" y="-47.3" width="1017" height="129"/>
			</defs>
			<clipPath id="SVGID_138_">
				<use xlink:href="#SVGID_137_"  overflow="visible"/>
			</clipPath>
			<rect x="141.8" y="-3.1" clip-path="url(#SVGID_138_)" fill="#474B52" width="24" height="21.2"/>
		</g>
	</g>
</g>
<g>
	<defs>
		<rect id="SVGID_139_" x="-480.4" y="-47.3" width="1017" height="129"/>
	</defs>
	<clipPath id="SVGID_140_">
		<use xlink:href="#SVGID_139_"  overflow="visible"/>
	</clipPath>
	<g clip-path="url(#SVGID_140_)">
		<defs>
			<path id="SVGID_141_" d="M139.7,10.7L137,23.6c-0.5,2.3-1.6,3.3-3.3,3.3c-1.7,0-2.4-1-1.9-3.3l2.7-12.9h-2.9l-2.7,12.7
				c-0.9,4.1,0.9,5.7,4.3,5.7c3.4,0,5.8-1.5,6.7-5.7l2.7-12.7H139.7z"/>
		</defs>
		<clipPath id="SVGID_142_">
			<use xlink:href="#SVGID_141_"  overflow="visible"/>
		</clipPath>
		<g clip-path="url(#SVGID_142_)">
			<defs>
				<rect id="SVGID_143_" x="-480.4" y="-47.3" width="1017" height="129"/>
			</defs>
			<clipPath id="SVGID_144_">
				<use xlink:href="#SVGID_143_"  overflow="visible"/>
			</clipPath>
			<rect x="123.6" y="5.7" clip-path="url(#SVGID_144_)" fill="#474B52" width="23.9" height="28.3"/>
		</g>
	</g>
</g>
<g>
	<defs>
		<rect id="SVGID_145_" x="-480.4" y="-47.3" width="1017" height="129"/>
	</defs>
	<clipPath id="SVGID_146_">
		<use xlink:href="#SVGID_145_"  overflow="visible"/>
	</clipPath>
	<g clip-path="url(#SVGID_146_)">
		<defs>
			<polygon id="SVGID_147_" points="168.5,28.6 171.3,28.6 174.1,15.1 171.4,15.1 			"/>
		</defs>
		<clipPath id="SVGID_148_">
			<use xlink:href="#SVGID_147_"  overflow="visible"/>
		</clipPath>
		<g clip-path="url(#SVGID_148_)">
			<defs>
				<rect id="SVGID_149_" x="-480.4" y="-47.3" width="1017" height="129"/>
			</defs>
			<clipPath id="SVGID_150_">
				<use xlink:href="#SVGID_149_"  overflow="visible"/>
			</clipPath>
			<rect x="163.5" y="10.1" clip-path="url(#SVGID_150_)" fill="#474B52" width="15.6" height="23.5"/>
		</g>
	</g>
</g>
<g>
	<defs>
		<rect id="SVGID_151_" x="-480.4" y="-47.3" width="1017" height="129"/>
	</defs>
	<clipPath id="SVGID_152_">
		<use xlink:href="#SVGID_151_"  overflow="visible"/>
	</clipPath>
	<g clip-path="url(#SVGID_152_)">
		<defs>
			<path id="SVGID_153_" d="M205.8,26.2c-1.9,0-2.7-1.3-2.7-4.2c0-1.1,0.1-2,0.4-2.6c0.1-0.2,0.2-0.4,0.3-0.6
				c0.1-0.2,0.2-0.3,0.4-0.5c0.4-0.4,1-0.6,1.7-0.6c1.9,0,2.7,1.3,2.7,4.2S207.7,26.2,205.8,26.2z M202.7,26h-4.5v-8.1h4.4V19h-3.1
				v2.2h2.9v1.1h-2.9v2.6h3.2V26z M194.4,26h-2.3v-8.1h2.3c2.5,0,2.9,1.7,2.9,4C197.3,24.4,197,26,194.4,26z M191.1,26h-1.3v-8.1
				h1.3V26z M187.5,26h-1.6l-1.9-8.1h1.4l1.4,6.5h0l1.5-6.5h1.4L187.5,26z M210.8,15.2h-29.7c-0.7,0-1.3,3-1.3,6.8
				c0,3.7,0.6,6.8,1.3,6.8h29.7c0.7,0,1.4-3,1.4-6.8C212.2,18.3,211.5,15.2,210.8,15.2z"/>
		</defs>
		<clipPath id="SVGID_154_">
			<use xlink:href="#SVGID_153_"  overflow="visible"/>
		</clipPath>
		<g clip-path="url(#SVGID_154_)">
			<defs>
				<rect id="SVGID_155_" x="-480.4" y="-47.3" width="1017" height="129"/>
			</defs>
			<clipPath id="SVGID_156_">
				<use xlink:href="#SVGID_155_"  overflow="visible"/>
			</clipPath>
			<rect x="174.8" y="10.2" clip-path="url(#SVGID_156_)" fill="#474B52" width="42.4" height="23.5"/>
		</g>
	</g>
</g>
<g>
	<defs>
		<rect id="SVGID_157_" x="-480.4" y="-47.3" width="1017" height="129"/>
	</defs>
	<clipPath id="SVGID_158_">
		<use xlink:href="#SVGID_157_"  overflow="visible"/>
	</clipPath>
	<g clip-path="url(#SVGID_158_)">
		<defs>
			<path id="SVGID_159_" d="M194.7,18.9l-0.2,0h-1.1v6.1h1.1c1.1,0,1.5-0.7,1.5-3.1v0C196,19.9,195.7,19,194.7,18.9z"/>
		</defs>
		<clipPath id="SVGID_160_">
			<use xlink:href="#SVGID_159_"  overflow="visible"/>
		</clipPath>
		<g clip-path="url(#SVGID_160_)">
			<defs>
				<rect id="SVGID_161_" x="-480.4" y="-47.3" width="1017" height="129"/>
			</defs>
			<clipPath id="SVGID_162_">
				<use xlink:href="#SVGID_161_"  overflow="visible"/>
			</clipPath>
			<rect x="188.4" y="13.9" clip-path="url(#SVGID_162_)" fill="#474B52" width="12.6" height="16.1"/>
		</g>
	</g>
</g>
<g>
	<defs>
		<rect id="SVGID_163_" x="-480.4" y="-47.3" width="1017" height="129"/>
	</defs>
	<clipPath id="SVGID_164_">
		<use xlink:href="#SVGID_163_"  overflow="visible"/>
	</clipPath>
	<g clip-path="url(#SVGID_164_)">
		<defs>
			<path id="SVGID_165_" d="M205.8,18.8L205.8,18.8c-0.1,0-0.2,0-0.2,0c0,0-0.1,0-0.1,0l-0.1,0l-0.1,0c0,0-0.1,0-0.1,0.1
				c0,0-0.1,0.1-0.1,0.1c-0.1,0.1-0.2,0.3-0.3,0.5c0,0,0,0.1,0,0.1c0,0.1,0,0.1-0.1,0.2c-0.1,0.5-0.2,1.1-0.2,2.1
				c0,1,0.1,1.6,0.2,2.1l0.1,0.2c0,0,0,0.1,0,0.1c0.1,0.2,0.2,0.4,0.3,0.5l0.1,0.1c0,0,0.1,0,0.1,0.1l0.1,0l0.1,0c0,0,0.1,0,0.1,0
				l0.1,0h0.1c0.8,0,1.4-0.5,1.4-3.3C207.2,19.2,206.6,18.8,205.8,18.8z"/>
		</defs>
		<clipPath id="SVGID_166_">
			<use xlink:href="#SVGID_165_"  overflow="visible"/>
		</clipPath>
		<g clip-path="url(#SVGID_166_)">
			<defs>
				<rect id="SVGID_167_" x="-480.4" y="-47.3" width="1017" height="129"/>
			</defs>
			<clipPath id="SVGID_168_">
				<use xlink:href="#SVGID_167_"  overflow="visible"/>
			</clipPath>
			<rect x="199.5" y="13.8" clip-path="url(#SVGID_168_)" fill="#474B52" width="12.7" height="16.5"/>
		</g>
	</g>
</g>
<g>
	<defs>
		<rect id="SVGID_169_" x="-480.4" y="-47.3" width="1017" height="129"/>
	</defs>
	<clipPath id="SVGID_170_">
		<use xlink:href="#SVGID_169_"  overflow="visible"/>
	</clipPath>
	<g clip-path="url(#SVGID_170_)">
		<defs>
			<path id="SVGID_171_" d="M172.4,10.7l-0.5,2.4h2.6C174.4,11.1,172.4,10.7,172.4,10.7z"/>
		</defs>
		<clipPath id="SVGID_172_">
			<use xlink:href="#SVGID_171_"  overflow="visible"/>
		</clipPath>
		<g clip-path="url(#SVGID_172_)">
			<defs>
				<rect id="SVGID_173_" x="-480.4" y="-47.3" width="1017" height="129"/>
			</defs>
			<clipPath id="SVGID_174_">
				<use xlink:href="#SVGID_173_"  overflow="visible"/>
			</clipPath>
			<rect x="166.8" y="5.7" clip-path="url(#SVGID_174_)" fill="#474B52" width="12.6" height="12.4"/>
		</g>
	</g>
</g>
<g>
	<defs>
		<rect id="SVGID_175_" x="-480.4" y="-47.3" width="1017" height="129"/>
	</defs>
	<clipPath id="SVGID_176_">
		<use xlink:href="#SVGID_175_"  overflow="visible"/>
	</clipPath>
	<g clip-path="url(#SVGID_176_)">
		<defs>
			<path id="SVGID_177_" d="M177.7,12.5v-0.6h0.4c0.2,0,0.5,0,0.5,0.3c0,0.3-0.2,0.3-0.5,0.3H177.7z M179,12.2
				c0-0.4-0.2-0.6-0.8-0.6h-0.8v2.1h0.3v-0.9h0.3l0.5,0.9h0.4l-0.6-0.9C178.7,12.7,179,12.5,179,12.2z"/>
		</defs>
		<clipPath id="SVGID_178_">
			<use xlink:href="#SVGID_177_"  overflow="visible"/>
		</clipPath>
		<g clip-path="url(#SVGID_178_)">
			<defs>
				<rect id="SVGID_179_" x="-480.4" y="-47.3" width="1017" height="129"/>
			</defs>
			<clipPath id="SVGID_180_">
				<use xlink:href="#SVGID_179_"  overflow="visible"/>
			</clipPath>
			<rect x="172.4" y="6.6" clip-path="url(#SVGID_180_)" fill="#474B52" width="11.6" height="12.1"/>
		</g>
	</g>
</g>
<g>
	<defs>
		<rect id="SVGID_181_" x="-480.4" y="-47.3" width="1017" height="129"/>
	</defs>
	<clipPath id="SVGID_182_">
		<use xlink:href="#SVGID_181_"  overflow="visible"/>
	</clipPath>
	<g clip-path="url(#SVGID_182_)">
		<defs>
			<path id="SVGID_183_" d="M178.1,14.1c-0.9,0-1.4-0.7-1.4-1.6c0-0.9,0.6-1.6,1.4-1.6c0.8,0,1.4,0.6,1.4,1.6
				C179.6,13.5,178.9,14.1,178.1,14.1z M178.1,10.7c-1,0-1.9,0.8-1.9,1.9c0,1.1,0.8,1.9,1.9,1.9c1,0,1.8-0.8,1.8-1.9
				C180,11.4,179.1,10.7,178.1,10.7z"/>
		</defs>
		<clipPath id="SVGID_184_">
			<use xlink:href="#SVGID_183_"  overflow="visible"/>
		</clipPath>
		<g clip-path="url(#SVGID_184_)">
			<defs>
				<rect id="SVGID_185_" x="-480.4" y="-47.3" width="1017" height="129"/>
			</defs>
			<clipPath id="SVGID_186_">
				<use xlink:href="#SVGID_185_"  overflow="visible"/>
			</clipPath>
			<rect x="171.3" y="5.7" clip-path="url(#SVGID_186_)" fill="#474B52" width="13.7" height="13.8"/>
		</g>
	</g>
</g>
<g>
	<defs>
		<rect id="SVGID_187_" x="-480.4" y="-47.3" width="1017" height="129"/>
	</defs>
	<clipPath id="SVGID_188_">
		<use xlink:href="#SVGID_187_"  overflow="visible"/>
	</clipPath>
	<g clip-path="url(#SVGID_188_)">
		<defs>
			<path id="SVGID_189_" d="M300,7.2c1.6-2.2,4.3-4.1,9.6-4.1l0.5-2.5c-6.2-0.2-10.1,2.2-12.1,5.1c-1.6,2.3-2.2,4.7-2.5,6.5l2.5,0
				C298.3,10.8,298.8,8.9,300,7.2z"/>
		</defs>
		<clipPath id="SVGID_190_">
			<use xlink:href="#SVGID_189_"  overflow="visible"/>
		</clipPath>
		<g clip-path="url(#SVGID_190_)">
			<defs>
				<rect id="SVGID_191_" x="-480.4" y="-47.3" width="1017" height="129"/>
			</defs>
			<clipPath id="SVGID_192_">
				<use xlink:href="#SVGID_191_"  overflow="visible"/>
			</clipPath>
			<rect x="290.6" y="-4.3" clip-path="url(#SVGID_192_)" fill="#474B52" width="24.6" height="21.6"/>
		</g>
	</g>
</g>
<g>
	<defs>
		<rect id="SVGID_193_" x="-480.4" y="-47.3" width="1017" height="129"/>
	</defs>
	<clipPath id="SVGID_194_">
		<use xlink:href="#SVGID_193_"  overflow="visible"/>
	</clipPath>
	<g clip-path="url(#SVGID_194_)">
		<defs>
			<path id="SVGID_195_" d="M309.2,5c-3.8,0.1-6.3,1.7-7.7,3.6c-0.9,1.2-1.3,2.5-1.6,3.6h0.1h2.5c0.2-0.7,0.5-1.5,1-2.2
				c0.9-1.2,2.3-2.3,5.1-2.6L309.2,5z"/>
		</defs>
		<clipPath id="SVGID_196_">
			<use xlink:href="#SVGID_195_"  overflow="visible"/>
		</clipPath>
		<g clip-path="url(#SVGID_196_)">
			<defs>
				<rect id="SVGID_197_" x="-480.4" y="-47.3" width="1017" height="129"/>
			</defs>
			<clipPath id="SVGID_198_">
				<use xlink:href="#SVGID_197_"  overflow="visible"/>
			</clipPath>
			<rect x="294.9" y="0" clip-path="url(#SVGID_198_)" fill="#474B52" width="19.2" height="17.3"/>
		</g>
	</g>
</g>
<g>
	<defs>
		<rect id="SVGID_199_" x="-480.4" y="-47.3" width="1017" height="129"/>
	</defs>
	<clipPath id="SVGID_200_">
		<use xlink:href="#SVGID_199_"  overflow="visible"/>
	</clipPath>
	<g clip-path="url(#SVGID_200_)">
		<defs>
			<path id="SVGID_201_" d="M304.7,12.3h3l0.5-2.5c-1.5,0.1-2.4,0.8-3,1.7C304.9,11.8,304.8,12,304.7,12.3z"/>
		</defs>
		<clipPath id="SVGID_202_">
			<use xlink:href="#SVGID_201_"  overflow="visible"/>
		</clipPath>
		<g clip-path="url(#SVGID_202_)">
			<defs>
				<rect id="SVGID_203_" x="-480.4" y="-47.3" width="1017" height="129"/>
			</defs>
			<clipPath id="SVGID_204_">
				<use xlink:href="#SVGID_203_"  overflow="visible"/>
			</clipPath>
			<rect x="299.7" y="4.8" clip-path="url(#SVGID_204_)" fill="#474B52" width="13.5" height="12.5"/>
		</g>
	</g>
</g>
<g>
	<defs>
		<rect id="SVGID_205_" x="-480.4" y="-47.3" width="1017" height="129"/>
	</defs>
	<clipPath id="SVGID_206_">
		<use xlink:href="#SVGID_205_"  overflow="visible"/>
	</clipPath>
	<g clip-path="url(#SVGID_206_)">
		<defs>
			<polygon id="SVGID_207_" points="304.4,14.4 301.4,28.4 304.2,28.4 307.2,14.4 			"/>
		</defs>
		<clipPath id="SVGID_208_">
			<use xlink:href="#SVGID_207_"  overflow="visible"/>
		</clipPath>
		<g clip-path="url(#SVGID_208_)">
			<defs>
				<rect id="SVGID_209_" x="-480.4" y="-47.3" width="1017" height="129"/>
			</defs>
			<clipPath id="SVGID_210_">
				<use xlink:href="#SVGID_209_"  overflow="visible"/>
			</clipPath>
			<rect x="296.4" y="9.4" clip-path="url(#SVGID_210_)" fill="#474B52" width="15.8" height="24.1"/>
		</g>
	</g>
</g>
<g>
	<defs>
		<rect id="SVGID_211_" x="-480.4" y="-47.3" width="1017" height="129"/>
	</defs>
	<clipPath id="SVGID_212_">
		<use xlink:href="#SVGID_211_"  overflow="visible"/>
	</clipPath>
	<g clip-path="url(#SVGID_212_)">
		<defs>
			<path id="SVGID_213_" d="M298.8,14c-1.6,0-3,0.8-4,2h-0.1l0.3-1.7h-2.7l-3,14.1h2.8l2-9.4c0.4-1.8,1.7-2.7,2.8-2.7
				c1.4,0,1.8,0.7,1.4,2.5l-2.1,9.6h2.8l2.3-10.6C302.1,15,300.9,14,298.8,14z"/>
		</defs>
		<clipPath id="SVGID_214_">
			<use xlink:href="#SVGID_213_"  overflow="visible"/>
		</clipPath>
		<g clip-path="url(#SVGID_214_)">
			<defs>
				<rect id="SVGID_215_" x="-480.4" y="-47.3" width="1017" height="129"/>
			</defs>
			<clipPath id="SVGID_216_">
				<use xlink:href="#SVGID_215_"  overflow="visible"/>
			</clipPath>
			<rect x="284.3" y="9" clip-path="url(#SVGID_216_)" fill="#474B52" width="22.3" height="24.4"/>
		</g>
	</g>
</g>
<g>
	<defs>
		<rect id="SVGID_217_" x="-480.4" y="-47.3" width="1017" height="129"/>
	</defs>
	<clipPath id="SVGID_218_">
		<use xlink:href="#SVGID_217_"  overflow="visible"/>
	</clipPath>
	<g clip-path="url(#SVGID_218_)">
		<defs>
			<polygon id="SVGID_219_" points="311.8,17.5 312.9,12.3 319.4,12.3 320,9.8 310.4,9.8 306.5,28.4 309.4,28.4 311.3,19.9 
				317.9,19.9 318.4,17.5 			"/>
		</defs>
		<clipPath id="SVGID_220_">
			<use xlink:href="#SVGID_219_"  overflow="visible"/>
		</clipPath>
		<g clip-path="url(#SVGID_220_)">
			<defs>
				<rect id="SVGID_221_" x="-480.4" y="-47.3" width="1017" height="129"/>
			</defs>
			<clipPath id="SVGID_222_">
				<use xlink:href="#SVGID_221_"  overflow="visible"/>
			</clipPath>
			<rect x="301.5" y="4.8" clip-path="url(#SVGID_222_)" fill="#474B52" width="23.5" height="28.7"/>
		</g>
	</g>
</g>
<g>
	<defs>
		<rect id="SVGID_223_" x="-480.4" y="-47.3" width="1017" height="129"/>
	</defs>
	<clipPath id="SVGID_224_">
		<use xlink:href="#SVGID_223_"  overflow="visible"/>
	</clipPath>
	<g clip-path="url(#SVGID_224_)">
		<defs>
			<path id="SVGID_225_" d="M288.2,9.8l-2.9,13.4c-0.5,2.4-1.7,3.4-3.4,3.4c-1.8,0-2.5-1-2-3.4l2.9-13.4h-3l-2.8,13.1
				c-0.9,4.3,0.9,5.9,4.5,5.9c3.5,0,6-1.5,7-5.9l2.8-13.1H288.2z"/>
		</defs>
		<clipPath id="SVGID_226_">
			<use xlink:href="#SVGID_225_"  overflow="visible"/>
		</clipPath>
		<g clip-path="url(#SVGID_226_)">
			<defs>
				<rect id="SVGID_227_" x="-480.4" y="-47.3" width="1017" height="129"/>
			</defs>
			<clipPath id="SVGID_228_">
				<use xlink:href="#SVGID_227_"  overflow="visible"/>
			</clipPath>
			<rect x="271.7" y="4.8" clip-path="url(#SVGID_228_)" fill="#474B52" width="24.5" height="29"/>
		</g>
	</g>
</g>
<g>
	<defs>
		<rect id="SVGID_229_" x="-480.4" y="-47.3" width="1017" height="129"/>
	</defs>
	<clipPath id="SVGID_230_">
		<use xlink:href="#SVGID_229_"  overflow="visible"/>
	</clipPath>
	<g clip-path="url(#SVGID_230_)">
		<defs>
			<polygon id="SVGID_231_" points="318.2,28.4 321,28.4 324,14.4 321.2,14.4 			"/>
		</defs>
		<clipPath id="SVGID_232_">
			<use xlink:href="#SVGID_231_"  overflow="visible"/>
		</clipPath>
		<g clip-path="url(#SVGID_232_)">
			<defs>
				<rect id="SVGID_233_" x="-480.4" y="-47.3" width="1017" height="129"/>
			</defs>
			<clipPath id="SVGID_234_">
				<use xlink:href="#SVGID_233_"  overflow="visible"/>
			</clipPath>
			<rect x="313.2" y="9.4" clip-path="url(#SVGID_234_)" fill="#474B52" width="15.8" height="24.1"/>
		</g>
	</g>
</g>
<g>
	<defs>
		<rect id="SVGID_235_" x="-480.4" y="-47.3" width="1017" height="129"/>
	</defs>
	<clipPath id="SVGID_236_">
		<use xlink:href="#SVGID_235_"  overflow="visible"/>
	</clipPath>
	<g clip-path="url(#SVGID_236_)">
		<defs>
			<path id="SVGID_237_" d="M350.2,22.2h-1.2v3.4h-1.3v-8.4h2.7c1.6,0,2.3,1,2.3,2.4C352.7,21.3,351.8,22.2,350.2,22.2z M346.6,25.7
				h-1.3v-8.4h1.3V25.7z M342.1,25.8c-1.8,0-2.3-1.3-2.3-3.3c0-2,0.5-3.3,2.3-3.3c1.9,0,2.4,1.3,2.4,3.3
				C344.5,24.5,343.8,25.8,342.1,25.8z M336.1,25.7L336.1,25.7l-2-8.4h1.4L337,24h0l1.5-6.7h1.4l-2.1,8.4H336.1z M354.8,14.5h-23.6
				c-0.7,0-1.3,3.1-1.3,7s0.6,7,1.3,7h23.6c0.7,0,2-3.1,2-7C356.8,17.7,355.5,14.5,354.8,14.5z"/>
		</defs>
		<clipPath id="SVGID_238_">
			<use xlink:href="#SVGID_237_"  overflow="visible"/>
		</clipPath>
		<g clip-path="url(#SVGID_238_)">
			<defs>
				<rect id="SVGID_239_" x="-480.4" y="-47.3" width="1017" height="129"/>
			</defs>
			<clipPath id="SVGID_240_">
				<use xlink:href="#SVGID_239_"  overflow="visible"/>
			</clipPath>
			<rect x="324.9" y="9.5" clip-path="url(#SVGID_240_)" fill="#474B52" width="36.9" height="24"/>
		</g>
	</g>
</g>
<g>
	<defs>
		<rect id="SVGID_241_" x="-480.4" y="-47.3" width="1017" height="129"/>
	</defs>
	<clipPath id="SVGID_242_">
		<use xlink:href="#SVGID_241_"  overflow="visible"/>
	</clipPath>
	<g clip-path="url(#SVGID_242_)">
		<defs>
			<path id="SVGID_243_" d="M342.1,20.2c-0.9,0-1.1,1-1.1,2.4c0,1.6,0.2,2.4,1.1,2.4c0.9,0,1.1-0.8,1.1-2.4
				C343.2,21.1,343,20.2,342.1,20.2z"/>
		</defs>
		<clipPath id="SVGID_244_">
			<use xlink:href="#SVGID_243_"  overflow="visible"/>
		</clipPath>
		<g clip-path="url(#SVGID_244_)">
			<defs>
				<rect id="SVGID_245_" x="-480.4" y="-47.3" width="1017" height="129"/>
			</defs>
			<clipPath id="SVGID_246_">
				<use xlink:href="#SVGID_245_"  overflow="visible"/>
			</clipPath>
			<rect x="336" y="15.2" clip-path="url(#SVGID_246_)" fill="#474B52" width="12.2" height="14.8"/>
		</g>
	</g>
</g>
<g>
	<defs>
		<rect id="SVGID_247_" x="-480.4" y="-47.3" width="1017" height="129"/>
	</defs>
	<clipPath id="SVGID_248_">
		<use xlink:href="#SVGID_247_"  overflow="visible"/>
	</clipPath>
	<g clip-path="url(#SVGID_248_)">
		<defs>
			<path id="SVGID_249_" d="M349.9,18.3L349.9,18.3h-0.8v2.9h1c0.7,0,1.3-0.4,1.3-1.5C351.4,18.9,351,18.3,349.9,18.3z"/>
		</defs>
		<clipPath id="SVGID_250_">
			<use xlink:href="#SVGID_249_"  overflow="visible"/>
		</clipPath>
		<g clip-path="url(#SVGID_250_)">
			<defs>
				<rect id="SVGID_251_" x="-480.4" y="-47.3" width="1017" height="129"/>
			</defs>
			<clipPath id="SVGID_252_">
				<use xlink:href="#SVGID_251_"  overflow="visible"/>
			</clipPath>
			<rect x="344.1" y="13.3" clip-path="url(#SVGID_252_)" fill="#474B52" width="12.3" height="12.9"/>
		</g>
	</g>
</g>
<g>
	<defs>
		<rect id="SVGID_253_" x="-480.4" y="-47.3" width="1017" height="129"/>
	</defs>
	<clipPath id="SVGID_254_">
		<use xlink:href="#SVGID_253_"  overflow="visible"/>
	</clipPath>
	<g clip-path="url(#SVGID_254_)">
		<defs>
			<path id="SVGID_255_" d="M322.1,9.8l-0.6,2.5h2.7C324.2,10.2,322.1,9.8,322.1,9.8z"/>
		</defs>
		<clipPath id="SVGID_256_">
			<use xlink:href="#SVGID_255_"  overflow="visible"/>
		</clipPath>
		<g clip-path="url(#SVGID_256_)">
			<defs>
				<rect id="SVGID_257_" x="-480.4" y="-47.3" width="1017" height="129"/>
			</defs>
			<clipPath id="SVGID_258_">
				<use xlink:href="#SVGID_257_"  overflow="visible"/>
			</clipPath>
			<rect x="316.6" y="4.8" clip-path="url(#SVGID_258_)" fill="#474B52" width="12.7" height="12.5"/>
		</g>
	</g>
</g>
<g>
	<defs>
		<rect id="SVGID_259_" x="-480.4" y="-47.3" width="1017" height="129"/>
	</defs>
	<clipPath id="SVGID_260_">
		<use xlink:href="#SVGID_259_"  overflow="visible"/>
	</clipPath>
	<g clip-path="url(#SVGID_260_)">
		<defs>
			<path id="SVGID_261_" d="M328.1,13.4c-0.9,0-1.6-0.7-1.6-1.7c0-0.9,0.7-1.7,1.6-1.7c0.9,0,1.6,0.7,1.6,1.7
				C329.7,12.7,329,13.4,328.1,13.4z M328.1,9.8c-1.1,0-2,0.8-2,1.9c0,1.1,0.9,2,2,2c1.1,0,2-0.8,2-2
				C330.1,10.6,329.2,9.8,328.1,9.8z"/>
		</defs>
		<clipPath id="SVGID_262_">
			<use xlink:href="#SVGID_261_"  overflow="visible"/>
		</clipPath>
		<g clip-path="url(#SVGID_262_)">
			<defs>
				<rect id="SVGID_263_" x="-480.4" y="-47.3" width="1017" height="129"/>
			</defs>
			<clipPath id="SVGID_264_">
				<use xlink:href="#SVGID_263_"  overflow="visible"/>
			</clipPath>
			<rect x="321.2" y="4.8" clip-path="url(#SVGID_264_)" fill="#474B52" width="13.9" height="13.9"/>
		</g>
	</g>
</g>
<g>
	<defs>
		<rect id="SVGID_265_" x="-480.4" y="-47.3" width="1017" height="129"/>
	</defs>
	<clipPath id="SVGID_266_">
		<use xlink:href="#SVGID_265_"  overflow="visible"/>
	</clipPath>
	<g clip-path="url(#SVGID_266_)">
		<defs>
			<path id="SVGID_267_" d="M328.1,11.6h-0.4v-0.7h0.5c0.2,0,0.5,0.1,0.5,0.4C328.7,11.6,328.4,11.6,328.1,11.6z M329.1,11.3
				c0-0.4-0.3-0.7-0.8-0.7h-0.9v2.3h0.4v-1h0.4l0.6,1h0.4l-0.7-1C328.8,11.8,329.1,11.7,329.1,11.3z"/>
		</defs>
		<clipPath id="SVGID_268_">
			<use xlink:href="#SVGID_267_"  overflow="visible"/>
		</clipPath>
		<g clip-path="url(#SVGID_268_)">
			<defs>
				<rect id="SVGID_269_" x="-480.4" y="-47.3" width="1017" height="129"/>
			</defs>
			<clipPath id="SVGID_270_">
				<use xlink:href="#SVGID_269_"  overflow="visible"/>
			</clipPath>
			<rect x="322.4" y="5.6" clip-path="url(#SVGID_270_)" fill="#474B52" width="11.7" height="12.3"/>
		</g>
	</g>
</g>
<g>
	<defs>
		<rect id="SVGID_271_" x="-480.4" y="-47.3" width="1017" height="129"/>
	</defs>
	<clipPath id="SVGID_272_">
		<use xlink:href="#SVGID_271_"  overflow="visible"/>
	</clipPath>
	<g clip-path="url(#SVGID_272_)">
		<defs>
			<path id="SVGID_273_" d="M484.8,10c0.3,0,0.5,0,0.5-0.4c0-0.3-0.3-0.4-0.5-0.4h-0.5V10L484.8,10L484.8,10z M484.4,11.5H484V8.9
				h0.9c0.6,0,0.9,0.2,0.9,0.7c0,0.5-0.3,0.7-0.6,0.7l0.6,1.1h-0.4l-0.6-1.1h-0.4L484.4,11.5z M484.8,8.2c-0.9,0-1.6,0.8-1.6,1.9
				c0,1.1,0.6,1.9,1.6,1.9c0.9,0,1.6-0.8,1.6-1.9C486.4,9,485.7,8.2,484.8,8.2z M484.8,12.5c-1.2,0-2.1-1-2.1-2.3
				c0-1.4,1-2.3,2.1-2.3c1.1,0,2.1,0.9,2.1,2.3C486.9,11.6,485.9,12.5,484.8,12.5z M467.4-8.6l-7.7,18.7l-1.9-8.2L453.5,9l-10.4,2.1
				h11.4l2.4-4.4l0.8,4.4c0,0,1.6-0.1,2.6,0.3c0.6,0.3,0.9,0.7,0.9,0.7l4.9-11.9l-0.4,5.5h17.5l-14.9-2.3L467.4-8.6z M477.2,11.3
				l0.7-3.5h3.5l-0.7,3.5H477.2z M473.6,30.2l3.2-16.8h3.5l-3.2,16.8H473.6z M461.2,30.2l4.3-22.3h10.7l-0.6,3.3h-6.9l-1.1,5.7h6.5
				l-0.6,3.3h-6.5l-1.9,10.1L461.2,30.2L461.2,30.2z M447.5,15.1L447.5,15.1c1.2-1.8,2.7-2.1,3.8-2.2c1.3,0,2.9,0.6,2.8,2.2h0.1
				c0.5-0.7,1-1.3,1.7-1.6c0.6-0.4,1.4-0.5,2.2-0.5c2.6,0,3.4,1.8,3,3.6l-2.6,13.7H455l2.2-11.4c0.3-1.5,0.4-3-1.1-2.9
				c-1.5,0.1-2,1.3-2.4,3.2l-2.1,11.1h-3.5l2.2-11.6c0.3-1.5,0.4-2.7-1.2-2.7c-1.6,0-2,1.4-2.3,3.2l-2.1,11.1h-3.5l3.2-16.8h3.5
				L447.5,15.1z"/>
		</defs>
		<clipPath id="SVGID_274_">
			<use xlink:href="#SVGID_273_"  overflow="visible"/>
		</clipPath>
		<g clip-path="url(#SVGID_274_)">
			<defs>
				<rect id="SVGID_275_" x="-480.4" y="-47.3" width="1017" height="129"/>
			</defs>
			<clipPath id="SVGID_276_">
				<use xlink:href="#SVGID_275_"  overflow="visible"/>
			</clipPath>
			<rect x="436.2" y="-13.6" clip-path="url(#SVGID_276_)" fill="#474B52" width="55.7" height="48.8"/>
		</g>
	</g>
</g>
<g>
	<defs>
		<rect id="SVGID_277_" x="-480.4" y="-47.3" width="1017" height="129"/>
	</defs>
	<clipPath id="SVGID_278_">
		<use xlink:href="#SVGID_277_"  overflow="visible"/>
	</clipPath>
	<g clip-path="url(#SVGID_278_)">
		<defs>
			<path id="SVGID_279_" d="M-376.9,10.9c0.2,0,0.4,0,0.4-0.3c0-0.2-0.2-0.3-0.4-0.3h-0.3v0.6H-376.9z M-377.2,12h-0.3v-1.9h0.6
				c0.4,0,0.6,0.2,0.6,0.6c0,0.3-0.2,0.5-0.4,0.5l0.5,0.8h-0.3l-0.4-0.8h-0.3L-377.2,12L-377.2,12z M-376.9,9.6
				c-0.7,0-1.2,0.6-1.2,1.4c0,0.8,0.4,1.4,1.2,1.4c0.7,0,1.2-0.6,1.2-1.4S-376.2,9.6-376.9,9.6z M-376.9,12.7
				c-0.9,0-1.5-0.7-1.5-1.7c0-1,0.7-1.7,1.5-1.7c0.8,0,1.5,0.7,1.5,1.7S-376.1,12.7-376.9,12.7z M-433,13.3c0.2,0,0.5,0,0.8,0.2
				c0.3,0.2,0.5,0.5,0.5,1.4v0h1.1V15c0-1.2-0.5-2.1-1-2.5c-0.6-0.4-1.2-0.4-1.4-0.4h-0.1L-433,13.3L-433,13.3z M-430.4,10.7
				c-1-0.7-2-0.8-2.5-0.8h-0.2v1.3h0.2c0.4,0,1.2,0.1,1.9,0.6c0.7,0.5,1.3,1.4,1.3,3.3h1.1C-428.6,12.8-429.4,11.4-430.4,10.7z
				 M-429.8,9.8c1.1,0.8,2,2.2,2.1,5.2h1.1c0-3.3-1.2-5.3-2.6-6.3c-1.4-1-2.9-1.1-3.6-1.1h-0.3v1.3c0,0,0.1,0,0.3,0
				C-432.2,8.9-430.9,9-429.8,9.8z M-425.1,16.7c-1.3,0-2.2,0.9-3,2.3h0l0.4-1.9h-2.2l-2.4,12.4h2.2l1.4-7.4
				c0.4-2.3,1.8-2.8,2.8-2.8c0.4,0,0.8,0.1,0.9,0.1l0.5-2.5C-424.7,16.8-424.9,16.7-425.1,16.7z M-434,17.1l-2.4,12.4h2.2l2.3-12.4
				H-434z M-439.4,25c-0.4,1.8-1.2,3-2.6,3c-0.9,0-1.2-0.8-1-1.9c0.2-0.9,0.6-1.7,1.3-2c0.7-0.3,2-0.6,2.7-1.2L-439.4,25z
				 M-436.3,19.8c0.4-2.2-1-3.1-2.9-3.1c-2.9,0-4.2,1.4-4.6,4.1h2.1c0.2-1.2,0.7-2.4,2.1-2.4c1.2,0,1.4,0.7,1.2,1.8
				c-0.2,1.1-0.8,1.3-1.6,1.6l-1.8,0.5c-1.6,0.6-2.8,1.1-3.3,3.9c-0.4,2.4,0.4,3.5,2.2,3.5c1.3,0,2.3-0.6,3.1-1.8h0
				c-0.2,1.2,0.6,1.6,1.6,1.6c0.4,0,0.8-0.2,1.1-0.3l0.3-1.6c-0.1,0.1-0.2,0.1-0.4,0.1c-0.3,0-0.5-0.4-0.4-0.9L-436.3,19.8z
				 M-385,14.3h2.7v2.4h0c0.6-1.7,1.6-2.8,3.2-2.8c0.3,0,0.5,0.1,0.7,0.1v3.1c-0.2-0.1-0.7-0.2-1.1-0.2c-1.2,0-2.7,0.6-2.7,3.5v9.1
				h-2.7V14.3z M-389.3,20.2v-0.8c0-1.9-0.6-3.4-2.1-3.4c-1.7,0-2.3,1.9-2.3,3.9v0.3L-389.3,20.2L-389.3,20.2z M-393.7,22.3v0.9
				c0,2,0.2,4.6,2.3,4.6c1.9,0,2.2-2.5,2.2-3.4h2.6c0,3.4-1.8,5.5-4.8,5.5c-2.2,0-5-0.7-5-7.8c0-4,0.8-8.2,5-8.2
				c3.8,0,4.8,2.6,4.8,6.8v1.6L-393.7,22.3L-393.7,22.3z M-402.6,27.4c1.9,0,2.3-2.2,2.3-5.6c0-4.1-0.6-5.5-2.1-5.5
				c-2.1,0-2.5,2.1-2.5,5.7C-404.9,25.3-404.5,27.4-402.6,27.4z M-407.5,9.3h2.7V16h0c0.5-1.4,1.6-2.2,3.1-2.2
				c2.1,0,4.2,1.1,4.2,7.8c0,5.2-1.3,8.2-4.4,8.2c-1.9,0-2.6-1.3-3-2.3h0v1.9h-2.6L-407.5,9.3L-407.5,9.3z M-412.4,14.3h2.7v15.2
				h-2.7V14.3z M-412.3,9.3h2.7l0,2.8h-2.7L-412.3,9.3z M-423.4,9.3h9.6V12h-6.7v5.6h6.3v2.7h-6.3v9.2h-2.9L-423.4,9.3L-423.4,9.3z"
				/>
		</defs>
		<clipPath id="SVGID_280_">
			<use xlink:href="#SVGID_279_"  overflow="visible"/>
		</clipPath>
		<g clip-path="url(#SVGID_280_)">
			<defs>
				<rect id="SVGID_281_" x="-480.4" y="-47.3" width="1017" height="129"/>
			</defs>
			<clipPath id="SVGID_282_">
				<use xlink:href="#SVGID_281_"  overflow="visible"/>
			</clipPath>
			<rect x="-450.4" y="2.7" clip-path="url(#SVGID_282_)" fill="#474B52" width="80" height="32.2"/>
		</g>
	</g>
</g>
<rect x="0.1" y="0.2" fill="none" width="55" height="30"/>
</svg>
